<svg width="67" height="41" viewBox="0 0 67 41" fill="none" xmlns="http://www.w3.org/2000/svg">
<path fill-rule="evenodd" clip-rule="evenodd" d="M20.5863 0.120012C22.8452 -0.0102204 25.1016 0.000198213 27.3605 0.000198213C27.3761 0.000198213 38.8072 0.000198213 38.8072 0.000198213C41.1102 0.000198213 43.3666 -0.0102204 45.6242 0.120012C47.6768 0.237221 49.6761 0.487268 51.6663 1.04597C55.8557 2.22066 59.5142 4.67424 62.1587 8.15276C64.7877 11.6092 66.2105 15.8404 66.2105 20.185C66.2105 24.5348 64.7877 28.7634 62.1587 32.2198C59.5142 35.697 55.8557 38.1519 51.6663 39.3266C49.6761 39.8853 47.6768 40.134 45.6242 40.2525C43.3666 40.3828 41.1102 40.371 38.8513 40.371C38.8357 40.371 27.4021 40.3724 27.4021 40.3724C25.1016 40.371 22.8452 40.3828 20.5863 40.2525C18.5351 40.134 16.5358 39.8853 14.5455 39.3266C10.3561 38.1519 6.69765 35.697 4.05312 32.2198C1.42418 28.7634 0 24.5348 0 20.1863C0 15.8404 1.42418 11.6092 4.05312 8.15276C6.69765 4.67424 10.3561 2.22066 14.5455 1.04597C16.5358 0.487268 18.5351 0.237221 20.5863 0.120012Z" fill="url(#paint0_linear_1604_14791)"/>
<defs>
<linearGradient id="paint0_linear_1604_14791" x1="-2.06908" y1="8.1029" x2="101.705" y2="30.4855" gradientUnits="userSpaceOnUse">
<stop stop-color="#8AA8F8"/>
<stop offset="1" stop-color="#315BFF"/>
</linearGradient>
</defs>
</svg>
